<svg xmlns="http://www.w3.org/2000/svg" viewBox="0 0 154 154"><title>aeroheim-logo</title><g id="6d6dc078-596d-4539-8326-9c41d3d57ec1" data-name="Colorized"><path d="M83.41,79.26c9.71-16.4,19.63-33.05,33.71-45.89,2.45-2.24,5.1-4.39,8.24-5.43s6.91-.78,9.38,1.43c2.7,2.41,3.22,6.57,2.16,10s-3.42,6.34-5.84,9A127.42,127.42,0,0,1,81.79,82.09Zm3.52,1.17c-10.44,13-10.19,19.66-9.67,26,1.78,12,13,9,15.85,8.29,16.92-4.42,39-24.32,43.32-39.21m-54.22,6.4a127.42,127.42,0,0,0-49.27,33.67c-2.42,2.68-4.78,5.57-5.84,9s-.54,7.62,2.16,10c2.47,2.21,6.23,2.48,9.38,1.43s5.79-3.19,8.24-5.43c14.08-12.84,24-29.49,33.71-45.89Zm-5.14,1.66c10.44-13,10.19-19.66,9.67-26-1.78-12-13-9-15.85-8.29C54,53.7,31.85,73.6,27.57,88.49" style="fill:none;stroke:#a7ff1d;stroke-miterlimit:10;stroke-width:15px"/><path d="M80.41,76.26c9.71-16.4,19.63-33.05,33.71-45.89,2.45-2.24,5.1-4.39,8.24-5.43s6.91-.78,9.38,1.43c2.7,2.41,3.22,6.57,2.16,10s-3.42,6.34-5.84,9A127.42,127.42,0,0,1,78.79,79.09Zm3.52,1.17c-10.44,13-10.19,19.66-9.67,26,1.78,12,13,9,15.85,8.29,16.92-4.42,39-24.32,43.32-39.21m-54.22,6.4a127.42,127.42,0,0,0-49.27,33.67c-2.42,2.68-4.78,5.57-5.84,9s-.54,7.62,2.16,10c2.47,2.21,6.23,2.48,9.38,1.43s5.79-3.19,8.24-5.43c14.08-12.84,24-29.49,33.71-45.89Zm-5.14,1.66c10.44-13,10.19-19.66,9.67-26-1.78-12-13-9-15.85-8.29C51,50.7,28.85,70.6,24.57,85.49" style="fill:none;stroke:#a7ff1d;stroke-miterlimit:10;stroke-width:15px"/><path d="M82.41,78.26c9.71-16.4,19.63-33.05,33.71-45.89,2.45-2.24,5.1-4.39,8.24-5.43s6.91-.78,9.38,1.43c2.7,2.41,3.22,6.57,2.16,10s-3.42,6.34-5.84,9A127.42,127.42,0,0,1,80.79,81.09Zm3.52,1.17c-10.44,13-10.19,19.66-9.67,26,1.78,12,13,9,15.85,8.29,16.92-4.42,39-24.32,43.32-39.21m-54.22,6.4a127.42,127.42,0,0,0-49.27,33.67c-2.42,2.68-4.78,5.57-5.84,9s-.54,7.62,2.16,10c2.47,2.21,6.23,2.48,9.38,1.43s5.79-3.19,8.24-5.43c14.08-12.84,24-29.49,33.71-45.89Zm-5.14,1.66c10.44-13,10.19-19.66,9.67-26-1.78-12-13-9-15.85-8.29C53,52.7,30.85,72.6,26.57,87.49" style="fill:none;stroke:#a7ff1d;stroke-miterlimit:10;stroke-width:15px"/><path d="M79.41,75.26C89.12,58.86,99,42.21,113.12,29.37c2.45-2.24,5.1-4.39,8.24-5.43s6.91-.78,9.38,1.43c2.7,2.41,3.22,6.57,2.16,10s-3.42,6.34-5.84,9A127.42,127.42,0,0,1,77.79,78.09Zm3.52,1.17c-10.44,13-10.19,19.66-9.67,26,1.78,12,13,9,15.85,8.29,16.92-4.42,39-24.32,43.32-39.21m-54.22,6.4a127.42,127.42,0,0,0-49.27,33.67c-2.42,2.68-4.78,5.57-5.84,9s-.54,7.62,2.16,10c2.47,2.21,6.23,2.48,9.38,1.43s5.79-3.19,8.24-5.43c14.08-12.84,24-29.49,33.71-45.89Zm-5.14,1.66c10.44-13,10.19-19.66,9.67-26-1.78-12-13-9-15.85-8.29C50,49.7,27.85,69.6,23.57,84.49" style="fill:none;stroke:#a7ff1d;stroke-miterlimit:10;stroke-width:15px"/><path d="M82.41,78.26c9.71-16.4,19.63-33.05,33.71-45.89,2.45-2.24,5.1-4.39,8.24-5.43s6.91-.78,9.38,1.43c2.7,2.41,3.22,6.57,2.16,10s-3.42,6.34-5.84,9A127.42,127.42,0,0,1,80.79,81.09Zm3.52,1.17c-10.44,13-10.19,19.66-9.67,26,1.78,12,13,9,15.85,8.29,16.92-4.42,39-24.32,43.32-39.21m-54.22,6.4a127.42,127.42,0,0,0-49.27,33.67c-2.42,2.68-4.78,5.57-5.84,9s-.54,7.62,2.16,10c2.47,2.21,6.23,2.48,9.38,1.43s5.79-3.19,8.24-5.43c14.08-12.84,24-29.49,33.71-45.89Zm-5.14,1.66c10.44-13,10.19-19.66,9.67-26-1.78-12-13-9-15.85-8.29C53,52.7,30.85,72.6,26.57,87.49" style="fill:none;stroke:#12d0ff;stroke-miterlimit:10;stroke-width:15px"/><path d="M79.41,75.26C89.12,58.86,99,42.21,113.12,29.37c2.45-2.24,5.1-4.39,8.24-5.43s6.91-.78,9.38,1.43c2.7,2.41,3.22,6.57,2.16,10s-3.42,6.34-5.84,9A127.42,127.42,0,0,1,77.79,78.09Zm3.52,1.17c-10.44,13-10.19,19.66-9.67,26,1.78,12,13,9,15.85,8.29,16.92-4.42,39-24.32,43.32-39.21m-54.22,6.4a127.42,127.42,0,0,0-49.27,33.67c-2.42,2.68-4.78,5.57-5.84,9s-.54,7.62,2.16,10c2.47,2.21,6.23,2.48,9.38,1.43s5.79-3.19,8.24-5.43c14.08-12.84,24-29.49,33.71-45.89Zm-5.14,1.66c10.44-13,10.19-19.66,9.67-26-1.78-12-13-9-15.85-8.29C50,49.7,27.85,69.6,23.57,84.49" style="fill:none;stroke:#12d0ff;stroke-miterlimit:10;stroke-width:15px"/><path d="M81.41,77.26c9.71-16.4,19.63-33.05,33.71-45.89,2.45-2.24,5.1-4.39,8.24-5.43s6.91-.78,9.38,1.43c2.7,2.41,3.22,6.57,2.16,10s-3.42,6.34-5.84,9A127.42,127.42,0,0,1,79.79,80.09Zm3.52,1.17c-10.44,13-10.19,19.66-9.67,26,1.78,12,13,9,15.85,8.29,16.92-4.42,39-24.32,43.32-39.21m-54.22,6.4a127.42,127.42,0,0,0-49.27,33.67c-2.42,2.68-4.78,5.57-5.84,9s-.54,7.62,2.16,10c2.47,2.21,6.23,2.48,9.38,1.43s5.79-3.19,8.24-5.43c14.08-12.84,24-29.49,33.71-45.89Zm-5.14,1.66c10.44-13,10.19-19.66,9.67-26-1.78-12-13-9-15.85-8.29C52,51.7,29.85,71.6,25.57,86.49" style="fill:none;stroke:#ff9fe2;stroke-miterlimit:10;stroke-width:15px"/><path d="M78.41,74.26C88.12,57.86,98,41.21,112.12,28.37c2.45-2.24,5.1-4.39,8.24-5.43s6.91-.78,9.38,1.43c2.7,2.41,3.22,6.57,2.16,10s-3.42,6.34-5.84,9A127.42,127.42,0,0,1,76.79,77.09Zm3.52,1.17c-10.44,13-10.19,19.66-9.67,26,1.78,12,13,9,15.85,8.29,16.92-4.42,39-24.32,43.32-39.21m-54.22,6.4a127.42,127.42,0,0,0-49.27,33.67c-2.42,2.68-4.78,5.57-5.84,9s-.54,7.62,2.16,10c2.47,2.21,6.23,2.48,9.38,1.43s5.79-3.19,8.24-5.43c14.08-12.84,24-29.49,33.71-45.89Zm-5.14,1.66c10.44-13,10.19-19.66,9.67-26-1.78-12-13-9-15.85-8.29C49,48.7,26.85,68.6,22.57,83.49" style="fill:none;stroke:#fff;stroke-miterlimit:10;stroke-width:15px"/></g></svg>