<svg xmlns="http://www.w3.org/2000/svg" viewBox="0 0 256 256"><title>aeroheim-logo</title><path d="M40.7,104.13A129.83,129.83,0,0,1,72,74.76c10.62-7,23.73-14.32,36.87-13.95,5.66.16,11.42,2.44,13.25,8.27,2.18,7-1.54,15.15-4,21.56a424,424,0,0,1-19.22,43.12,390,390,0,0,1-24.27,40.3c-4.47,6.48-9.12,12.84-14,19-4.31,5.44-8.86,11.2-15.24,14.32-4.82,2.36-10.1,1.66-10.68-4.51s2.9-11.87,6.22-16.62c8.52-12.17,21.31-21.66,32.9-30.71,24.29-19,50.34-35.54,75-54a431.27,431.27,0,0,0,34.91-28.64c7.9-7.31,25.28-20.71,17.95-33.42-8.41-14.58-27.88,2-36.23,8.27a192.81,192.81,0,0,0-30.79,28.86c-17.75,20.87-33.37,47-39,74.07-2.85,13.78-1.53,29.32,9.72,39.15,9.46,8.26,22.6,10.84,34.85,9.77,29.12-2.52,55.34-21,76-40.47a205.56,205.56,0,0,0,15.58-16.63c3.71-4.35-1.25-12.42-6.59-8.54-24,17.43-46,39.66-75.15,48.37-10.29,3.07-23.36,4.33-32.86-1.75-12.18-7.8-9.41-24-5.66-35.76,8.5-26.56,24.14-50.92,43.91-70.48,9.82-9.72,20.9-18.89,33-25.65-.35.19,2.74-1.39,2.73-1.32.08-.62-1.82-1.64-1.71-1.69-.12.06-.9,2.4-1.1,2.75-1.67,3-4.59,5.36-7,7.74-5.43,5.41-11.08,10.58-16.89,15.57C141,92,114.89,109,89.66,127.11c-12.52,9-24.88,18.18-36.68,28.08-11,9.26-22.82,19.61-28.62,33.15C19.42,199.86,20.14,216.22,34,221c13.58,4.7,26.44-6.88,34.22-16.66a378.52,378.52,0,0,0,49.09-80c8.41-18.63,32.37-65.1-1.2-73.08-12.47-3-25.27,1.85-36.27,7.4A111.73,111.73,0,0,0,46.9,84.11,95.14,95.14,0,0,0,35.27,101c-2,3.63,3,6.3,5.42,3.17Z"/></svg>