<svg xmlns="http://www.w3.org/2000/svg" viewBox="0 0 256 256"><title>logo</title><path d="M40,103.74a125.48,125.48,0,0,1,31.39-30c10.77-7.17,24.14-14.57,37.49-14.18,6.22.18,12.58,2.78,14.53,9.22,2.22,7.31-1.3,15.55-3.89,22.31a410.8,410.8,0,0,1-19.3,43.52A387,387,0,0,1,76,174.88c-4.54,6.6-9.28,13.07-14.26,19.35-4.42,5.58-9.07,11.32-15.56,14.59-5.91,3-12.57,1.51-13.18-5.93-.52-6.37,2.92-12.44,6.43-17.46,8.6-12.31,21.44-21.9,33.16-31,24.4-19.06,50.56-35.73,75.34-54.27a427.1,427.1,0,0,0,34.56-28.38c7.15-6.63,24.39-19.61,17.68-31.35-7.58-13.24-26.56,3.35-33.89,8.89a190.91,190.91,0,0,0-30.44,28.6c-17.54,20.63-33,46.5-38.52,73.32-2.7,13.21-1.43,28,9.33,37.4,9.07,7.94,21.84,10.21,33.56,9.17,28.61-2.54,54.25-21,74.75-39.87,5.6-5.16,10.8-10.66,15.91-16.3,2.92-3.22-1.09-9.38-4.94-6.41-23.62,18.24-46,40.35-75.33,49-10.83,3.21-24.32,4.3-34.29-2-13-8.23-10.41-25.3-6.41-37.8,8.59-26.84,24.38-51.47,44.37-71.23,9.92-9.81,21.12-19.11,33.35-25.91,1-.53,3.26-2.09,3.57-1.31s-.91,2.71-1.3,3.39c-1.76,3.1-4.75,5.59-7.25,8.09C177.21,62.82,171.56,68,165.75,73c-23.69,20.34-49.89,37.44-75.24,55.58-12.4,8.88-24.65,18-36.34,27.81C43.3,165.49,31.6,175.66,25.88,189c-4.55,10.59-4.27,25.9,8.53,30.43s25.27-7,32.63-16.22a378.39,378.39,0,0,0,48.91-79.6c6.14-13.54,13.3-28.25,15.69-43,2-12.43-2.73-24.87-15.91-28-12.1-2.89-24.61,1.85-35.29,7.23a112.15,112.15,0,0,0-32.77,25.1,99.37,99.37,0,0,0-11.72,16.48c-1.57,2.68,2.31,4.77,4.07,2.38Z"/></svg>