<svg id="Layer_1" data-name="Layer 1" xmlns="http://www.w3.org/2000/svg" viewBox="0 0 154 154"><defs><style>.cls-1{fill:none;}</style></defs><title>aeroheim-logo-5</title><path class="cls-1" d="M78.5,74.33c10.29-16,20.8-32.34,35.32-44.67,2.53-2.15,5.25-4.2,8.43-5.14s6.94-.53,9.33,1.77c2.6,2.5,3,6.68,1.8,10.1s-3.65,6.21-6.16,8.81A127.46,127.46,0,0,1,76.79,77.1Z"/><path class="cls-1" d="M82,75.62C71.09,88.23,71.1,94.9,71.39,101.27c1.36,12.09,12.7,9.48,15.55,8.84,17.07-3.81,39.89-22.92,44.68-37.65"/><path class="cls-1" d="M75.5,79.71c-10.29,16-20.8,32.33-35.32,44.66-2.53,2.15-5.25,4.21-8.43,5.14s-6.94.53-9.33-1.76c-2.6-2.51-3-6.69-1.8-10.1s3.65-6.22,6.16-8.82a127.57,127.57,0,0,1,50.43-31.9Z"/><path class="cls-1" d="M72,78.41C82.91,65.8,82.9,59.13,82.61,52.77c-1.36-12.09-12.7-9.49-15.55-8.85C50,47.74,27.17,66.85,22.38,81.58"/></svg>