<svg xmlns="http://www.w3.org/2000/svg" viewBox="0 0 256 256"><defs><style>.a{fill:none;stroke-miterlimit:10;}</style></defs><title>logo</title><path class="a" d="M36.34,102.09s0,0,0,0A105.21,105.21,0,0,1,57.88,78.82,100.12,100.12,0,0,1,83.71,61.08c8.35-3.91,17.75-7.05,26.95-5.51,6.79,1,12.33,4.59,14.5,10.77,1.66,4.69,1.4,10,.19,15.14-.66,2.78-1.51,5.52-2.36,8.16-3.65,11.3-8.7,22.43-13.64,33.08q-2.87,6.17-5.95,12.23a381.84,381.84,0,0,1-24.89,41.89q-7,10.28-14.76,20.09l-1.94,2.44c-3.81,4.74-8.44,9.69-14.11,12.83s-12.18,3.27-15.64-1.57c-3.91-4.48-3.81-10.56-2.34-16.43a42.9,42.9,0,0,1,6-13c5.82-8.72,13.94-16.06,22-22.85,2.63-2.21,5.3-4.36,7.95-6.46,11.58-9.22,23.6-17.88,35.69-26.43,11.18-7.91,22.45-15.71,33.52-23.77,12.46-9,24.6-18.46,36.18-28.59l2.71-2.37c5.25-4.58,11.31-10,15.68-15.74,2.12-2.86,4-5.77,4.56-9,.08-.88.48-2.39,0-3.31-.61-1.19-2.28-1-3.39-1.13-8.63-.56-20.34,9.1-27.26,14.75q-5.57,4.48-10.77,9.34A186.94,186.94,0,0,0,136,83.24c-14.32,17.37-26.46,38-33,59.73-.78,2.59-1.48,5.26-2.05,8-2.58,12.21-1.83,25.91,8.85,34,8.79,6.66,20.71,7.79,31.47,6.21,1.83-.27,3.64-.61,5.41-1,24.15-5.43,45-21.09,63.35-37.05,5.31-4.62,10.4-9.41,15.47-14.21a6.56,6.56,0,0,0,1.69-2.67"/></svg>